<svg width="24" height="24" viewBox="0 0 24 24" fill="none" xmlns="http://www.w3.org/2000/svg">
<g clip-path="url(#clip0_25_3308)">
<mask id="mask0_25_3308" style="mask-type:luminance" maskUnits="userSpaceOnUse" x="0" y="0" width="24" height="24">
<path d="M24 0H0V24H24V0Z" fill="white"/>
</mask>
<g mask="url(#mask0_25_3308)">
<mask id="mask1_25_3308" style="mask-type:luminance" maskUnits="userSpaceOnUse" x="3" y="5" width="18" height="14">
<path d="M21 5H3V18.9437H21V5Z" fill="white"/>
</mask>
<g mask="url(#mask1_25_3308)">
<path d="M18.2378 6.2418C17.0905 5.71539 15.8602 5.32755 14.5739 5.10542C14.5505 5.10114 14.5271 5.11185 14.515 5.13328C14.3568 5.41469 14.1815 5.78181 14.0588 6.07037C12.6753 5.86324 11.2989 5.86324 9.94374 6.07037C9.82099 5.7754 9.63936 5.41469 9.48043 5.13328C9.46836 5.11257 9.44496 5.10185 9.42154 5.10542C8.13593 5.32684 6.90567 5.71468 5.7577 6.2418C5.74776 6.24609 5.73924 6.25324 5.73359 6.26251C3.40004 9.74879 2.76079 13.1494 3.07439 16.5078C3.0758 16.5242 3.08503 16.5399 3.0978 16.5499C4.63741 17.6806 6.12878 18.367 7.59246 18.822C7.61588 18.8291 7.6407 18.8205 7.65561 18.8012C8.00184 18.3284 8.31048 17.8299 8.57511 17.3056C8.59072 17.2749 8.57582 17.2385 8.5439 17.2263C8.05435 17.0406 7.5882 16.8142 7.1398 16.5571C7.10433 16.5364 7.10149 16.4856 7.13412 16.4613C7.22848 16.3906 7.32286 16.3171 7.41297 16.2428C7.42927 16.2292 7.45198 16.2264 7.47115 16.2349C10.417 17.5799 13.6062 17.5799 16.5172 16.2349C16.5364 16.2256 16.5591 16.2285 16.5761 16.2421C16.6662 16.3164 16.7606 16.3906 16.8557 16.4613C16.8883 16.4856 16.8862 16.5364 16.8507 16.5571C16.4023 16.8192 15.9361 17.0406 15.4459 17.2256C15.414 17.2377 15.3998 17.2749 15.4154 17.3056C15.6857 17.8291 15.9943 18.3277 16.3342 18.8005C16.3484 18.8205 16.3739 18.8291 16.3973 18.822C17.8681 18.367 19.3595 17.6806 20.8991 16.5499C20.9126 16.5399 20.9211 16.5249 20.9225 16.5085C21.2978 12.6258 20.2939 9.2531 18.2612 6.26322C18.2562 6.25324 18.2477 6.24609 18.2378 6.2418ZM9.01502 14.4629C8.12812 14.4629 7.39735 13.6486 7.39735 12.6487C7.39735 11.6487 8.11395 10.8345 9.01502 10.8345C9.92315 10.8345 10.6469 11.6558 10.6327 12.6487C10.6327 13.6486 9.91606 14.4629 9.01502 14.4629ZM14.9961 14.4629C14.1092 14.4629 13.3784 13.6486 13.3784 12.6487C13.3784 11.6487 14.095 10.8345 14.9961 10.8345C15.9042 10.8345 16.6279 11.6558 16.6137 12.6487C16.6137 13.6486 15.9042 14.4629 14.9961 14.4629Z" fill="white"/>
</g>
</g>
</g>
<defs>
<clipPath id="clip0_25_3308">
<rect width="24" height="24" fill="white"/>
</clipPath>
</defs>
</svg>
