<svg width="24" height="24" viewBox="0 0 24 24" fill="none" xmlns="http://www.w3.org/2000/svg">
<path d="M19.7708 16.2966C16.9654 14.9386 16.5183 12.8419 16.4984 12.6863C16.4743 12.498 16.447 12.3498 16.6549 12.1582C16.8553 11.9731 17.7444 11.4228 17.9911 11.2506C18.3989 10.9655 18.5785 10.6808 18.4461 10.3309C18.3535 10.0888 18.1281 9.99764 17.8907 9.99764C17.8158 9.99787 17.7411 10.0062 17.6681 10.0226C17.22 10.1198 16.7849 10.3443 16.5331 10.4049C16.5029 10.4127 16.4718 10.4169 16.4406 10.4174C16.3063 10.4174 16.2554 10.3577 16.2684 10.1962C16.2998 9.70651 16.3665 8.75072 16.2892 7.85788C16.1832 6.62948 15.787 6.02083 15.3172 5.48254C15.0899 5.22149 14.0346 4.10001 11.9981 4.10001C9.96149 4.10001 8.90756 5.22149 8.68169 5.4793C8.2105 6.01759 7.81476 6.62624 7.70969 7.85464C7.63239 8.74748 7.70182 9.7028 7.73052 10.193C7.73978 10.3466 7.69256 10.4142 7.55834 10.4142C7.5271 10.4137 7.49603 10.4095 7.46576 10.4017C7.21443 10.3411 6.77935 10.1166 6.3313 10.0194C6.25822 10.003 6.18357 9.99463 6.10867 9.9944C5.8703 9.9944 5.64581 10.087 5.55324 10.3277C5.42086 10.6776 5.59953 10.9622 6.00869 11.2473C6.25539 11.4195 7.14454 11.9694 7.34496 12.155C7.55232 12.3466 7.52547 12.4947 7.5014 12.6831C7.4815 12.8409 7.03392 14.9376 4.22901 16.2933C4.06469 16.3729 3.78513 16.5414 4.27807 16.8136C5.05197 17.2412 5.56713 17.1954 5.9675 17.4532C6.30723 17.6722 6.10635 18.1443 6.35352 18.3146C6.65715 18.5243 7.55463 18.2998 8.71409 18.6826C9.68609 19.0028 10.2767 19.9077 12.0004 19.9077C13.7241 19.9077 14.3318 18.9987 15.2867 18.6826C16.4438 18.2998 17.3431 18.5243 17.6472 18.3146C17.8939 18.1443 17.6935 17.6722 18.0332 17.4532C18.4336 17.1954 18.9483 17.2412 19.7227 16.8136C20.2147 16.5446 19.9351 16.3762 19.7708 16.2966Z" fill="white"/>
</svg>
