<svg width="24" height="24" viewBox="0 0 24 24" fill="none" xmlns="http://www.w3.org/2000/svg">
<g clip-path="url(#clip0_565_84229)">
<path d="M18.3193 8.72906C18.329 8.86906 18.329 9.00906 18.329 9.15035C18.329 13.4555 15.0515 18.4207 9.05865 18.4207V18.4181C7.28832 18.4207 5.55478 17.9136 4.06445 16.9574C4.32187 16.9884 4.58058 17.0039 4.83994 17.0045C6.30703 17.0058 7.73219 16.5136 8.88639 15.6071C7.49219 15.5807 6.26961 14.6716 5.84252 13.3445C6.3309 13.4387 6.83413 13.4194 7.31349 13.2884C5.79349 12.9813 4.69994 11.6458 4.69994 10.0949V10.0536C5.15284 10.3058 5.65994 10.4458 6.17865 10.4613C4.74703 9.50454 4.30574 7.60003 5.17026 6.111C6.82445 8.14648 9.2651 9.3839 11.8851 9.51487C11.6225 8.38325 11.9812 7.19745 12.8277 6.40196C14.1399 5.16841 16.2038 5.23164 17.4374 6.54325C18.167 6.39938 18.8664 6.13164 19.5064 5.75229C19.2632 6.50648 18.7541 7.14712 18.0741 7.55422C18.7199 7.47809 19.3509 7.30519 19.9451 7.04132C19.5077 7.6968 18.9567 8.26777 18.3193 8.72906Z" fill="white"/>
</g>
<defs>
<clipPath id="clip0_565_84229">
<rect width="16" height="13.1613" fill="white" transform="translate(4 5.42001)"/>
</clipPath>
</defs>
</svg>
