<svg width="81" height="81" viewBox="0 0 81 81" fill="none" xmlns="http://www.w3.org/2000/svg">
<path fill-rule="evenodd" clip-rule="evenodd" d="M30.4016 40.3159V22.6908H32.9016V40.3159C35.7544 40.895 37.9016 43.4172 37.9016 46.4409C37.9016 49.4646 35.7544 51.9868 32.9016 52.5659V57.6909H30.4016V52.5659C27.5488 51.9868 25.4016 49.4646 25.4016 46.4409C25.4016 43.4172 27.5488 40.895 30.4016 40.3159ZM35.4016 46.4409C35.4016 48.5119 33.7227 50.1909 31.6516 50.1909C29.5806 50.1909 27.9016 48.5119 27.9016 46.4409C27.9016 44.3698 29.5806 42.6909 31.6516 42.6909C33.7227 42.6909 35.4016 44.3698 35.4016 46.4409ZM47.9017 57.6909H50.4017V40.0658C53.2545 39.4867 55.4017 36.9645 55.4017 33.9408C55.4017 30.9171 53.2545 28.3949 50.4017 27.8159V22.6908H47.9017V27.8159C45.0488 28.3949 42.9016 30.9171 42.9016 33.9408C42.9016 36.9645 45.0488 39.4867 47.9017 40.0658V57.6909ZM52.9017 33.9408C52.9017 31.8698 51.2227 30.1908 49.1517 30.1908C47.0806 30.1908 45.4016 31.8698 45.4016 33.9408C45.4016 36.0119 47.0806 37.6909 49.1517 37.6909C51.2227 37.6909 52.9017 36.0119 52.9017 33.9408Z" fill="white"/>
</svg>
