<svg width="20" height="20" viewBox="0 0 20 20" fill="none" xmlns="http://www.w3.org/2000/svg">
<g clip-path="url(#clip0_298_62833)">
<path d="M12.0839 12.972C12.3842 13.2818 12.3765 13.7764 12.0667 14.0767C11.3944 14.7285 11.0571 15.0501 10.7086 15.3543C10.5605 15.4836 10.3774 15.547 10.1952 15.547C9.97742 15.547 9.76083 15.4564 9.60634 15.2795C9.3226 14.9545 9.35604 14.461 9.68106 14.1772C10.0031 13.8961 10.3274 13.5867 10.9791 12.9549C11.289 12.6546 11.7835 12.6622 12.0839 12.972ZM5.92001 8.05366C5.66408 8.3208 5.46284 8.52306 5.28531 8.70149C5.04954 8.93851 4.86329 9.12573 4.68467 9.33033C4.40093 9.65535 4.4344 10.1489 4.75943 10.4326C4.90755 10.5619 5.09059 10.6254 5.27289 10.6254C5.49065 10.6254 5.70728 10.5348 5.86173 10.3579C6.00684 10.1916 6.16883 10.0288 6.393 9.80347C6.56635 9.62922 6.78208 9.41235 7.04816 9.13463C7.34667 8.82308 7.33608 8.32857 7.02453 8.03007C6.71306 7.73153 6.21851 7.74211 5.92001 8.05366ZM19.9077 3.07898C19.4499 4.71606 18.3107 7.34783 15.4834 10.5887C15.0236 11.1157 14.8119 11.8201 14.9025 12.5211C15.0408 13.5916 14.9595 14.7945 14.6736 15.9081C14.3456 17.1859 13.7611 18.3102 12.9833 19.1594C12.5028 19.684 11.8447 19.9823 11.1302 19.9991C11.1099 19.9996 11.0896 19.9999 11.0693 19.9999C10.3791 19.9999 9.70681 19.7236 9.21632 19.2364L0.767914 10.8661C0.76643 10.8647 0.764946 10.8632 0.7635 10.8617C0.261959 10.3568 -0.0160769 9.65926 0.0007193 8.94784C0.0175936 8.23338 0.315784 7.57528 0.84045 7.09475C1.6867 6.31967 2.8065 5.73633 4.07887 5.40775C5.18765 5.12144 6.38694 5.03792 7.45577 5.17268C8.15839 5.26127 8.86219 5.04746 9.38701 4.58619C12.6632 1.70638 15.2928 0.553577 16.9219 0.0935565C17.7741 -0.147059 18.6573 0.0829319 19.2847 0.708766C19.9143 1.33667 20.1472 2.22273 19.9077 3.07898ZM18.1813 1.81493C18.0748 1.70869 17.7802 1.47471 17.3465 1.59721C15.8729 2.01328 13.4749 3.0732 10.4185 5.75969C9.55775 6.5163 8.40674 6.86742 7.2603 6.72282C5.64119 6.51876 3.35457 6.91078 1.89576 8.24693C1.68772 8.43747 1.56944 8.69945 1.56273 8.98468C1.55585 9.27642 1.66495 9.55114 1.87002 9.75863L10.3167 18.1272C10.5251 18.3343 10.8012 18.4439 11.0933 18.4372C11.3785 18.4305 11.6406 18.3121 11.8311 18.1041C13.1734 16.6385 13.5626 14.3447 13.3529 12.7214C13.205 11.5771 13.5524 10.4254 14.306 9.56157C16.9414 6.54068 17.9886 4.14011 18.403 2.65822C18.4882 2.35358 18.4053 2.03836 18.1813 1.81493ZM11.3276 7.81289C10.7883 7.81289 10.3511 8.2501 10.3511 8.78941C10.3511 9.32873 10.7883 9.76593 11.3276 9.76593C11.867 9.76593 12.3042 9.32873 12.3042 8.78941C12.3042 8.2501 11.867 7.81289 11.3276 7.81289ZM13.7487 7.34416C14.288 7.34373 14.7255 6.90621 14.7259 6.36689C14.7264 5.82758 14.2895 5.39072 13.7502 5.39111C13.2108 5.39154 12.7733 5.82906 12.7729 6.36838C12.7725 6.90769 13.2094 7.34459 13.7487 7.34416ZM1.97572 19.9998C1.45132 19.9998 0.94322 19.7901 0.561126 19.3969C0.0244683 18.8447 -0.142009 18.0535 0.126691 17.3321L0.146807 17.278C0.478825 16.3861 0.52312 16.2874 1.32672 14.9813C1.55284 14.6139 2.03396 14.4993 2.40148 14.7253C2.76897 14.9514 2.88357 15.4326 2.65749 15.8001C1.91494 17.0069 1.90923 17.0222 1.61108 17.8231L1.59089 17.8774C1.50894 18.0974 1.62702 18.2518 1.68163 18.3079C1.73733 18.3652 1.89146 18.4902 2.11899 18.4127C2.94931 18.1301 4.24199 17.3794 4.25492 17.3718C4.62776 17.1547 5.10598 17.2807 5.3232 17.6535C5.54041 18.0262 5.41444 18.5044 5.04172 18.7217C4.98337 18.7557 3.60147 19.5586 2.62237 19.8918C2.40914 19.9644 2.19106 19.9998 1.97572 19.9998Z" fill="#EEEEEE"/>
</g>
<defs>
<clipPath id="clip0_298_62833">
<rect width="20" height="20" fill="white"/>
</clipPath>
</defs>
</svg>
