<svg width="13" height="13" viewBox="0 0 13 13" fill="none" xmlns="http://www.w3.org/2000/svg">
<g clip-path="url(#clip0_298_62516)">
<path d="M9.67566 8.56777C9.5558 8.56777 9.43597 8.52211 9.34445 8.43073C9.16126 8.2478 9.16105 7.95101 9.34395 7.7678L11.7881 5.32001C11.8769 5.23123 11.9256 5.11353 11.9256 4.98832C11.9256 4.86312 11.8769 4.74542 11.7883 4.65687C11.6056 4.47411 11.3082 4.47411 11.1254 4.65687C11.1246 4.65769 11.1238 4.65849 11.123 4.65929L9.28599 6.46962C9.02052 6.73447 8.66791 6.88027 8.29287 6.88027C7.91726 6.88027 7.56411 6.734 7.29852 6.46838C7.03293 6.20276 6.88664 5.84963 6.88664 5.47402C6.88664 5.09839 7.03291 4.74525 7.29852 4.47964L9.16368 2.61769C9.25192 2.52943 9.30069 2.41172 9.30069 2.28652C9.30069 2.16132 9.25192 2.04361 9.16339 1.95507C9.07485 1.86654 8.95715 1.81777 8.83195 1.81777C8.70674 1.81777 8.58904 1.86654 8.5005 1.95507L5.29572 5.14974C5.11237 5.33253 4.81559 5.33204 4.63282 5.14868C4.45006 4.96533 4.45053 4.66854 4.63388 4.48578L7.83809 1.29162C8.38584 0.743841 9.278 0.743864 9.82627 1.29214C10.3746 1.84043 10.3746 2.73256 9.82627 3.28088L7.96114 5.14285C7.87287 5.23109 7.82412 5.34882 7.82412 5.47402C7.82412 5.59922 7.8729 5.71693 7.96142 5.80547C8.04996 5.894 8.16767 5.94277 8.29287 5.94277C8.41807 5.94277 8.53579 5.89402 8.62432 5.80547C8.62514 5.80465 8.62593 5.80386 8.62675 5.80306L10.4639 3.99254C11.0124 3.44567 11.9034 3.44614 12.4512 3.99394C12.7168 4.25956 12.8631 4.61269 12.8631 4.98832C12.8631 5.36396 12.7168 5.71709 12.4512 5.98268L10.0074 8.43024C9.91582 8.5219 9.79573 8.56777 9.67566 8.56777ZM9.6755 11.3675L12.4185 8.66745C12.603 8.48583 12.6054 8.18904 12.4237 8.00454C12.2421 7.82004 11.9453 7.81772 11.7609 7.99932L9.0167 10.7005C9.01583 10.7014 9.01494 10.7023 9.01408 10.7031C7.36656 12.3507 4.68586 12.3507 3.03837 10.7031C1.39088 9.05562 1.39088 6.37489 3.03931 4.72641L5.76592 1.98422C5.94847 1.80064 5.9476 1.50385 5.76404 1.32132C5.58046 1.13879 5.28367 1.13963 5.10115 1.32319L2.37547 4.06444C1.40032 5.03961 0.863281 6.33615 0.863281 7.71523C0.863281 9.09434 1.40032 10.3909 2.37547 11.366C3.35062 12.3412 4.64717 12.8783 6.02623 12.8783C7.40464 12.8783 8.70051 12.3418 9.6755 11.3675ZM5.09261 10.5579C4.0329 10.5579 3.17077 9.69579 3.17077 8.63607C3.17077 7.57634 4.0329 6.71419 5.09261 6.71419C6.15233 6.71419 7.01446 7.57634 7.01446 8.63607C7.01446 9.69579 6.1523 10.5579 5.09261 10.5579ZM5.09261 7.65169C4.54983 7.65169 4.10825 8.09328 4.10825 8.63607C4.10825 9.17886 4.54983 9.62044 5.09261 9.62044C5.6354 9.62044 6.07698 9.17886 6.07698 8.63607C6.07698 8.09328 5.63537 7.65169 5.09261 7.65169Z" fill="#EEEEEE"/>
</g>
<defs>
<clipPath id="clip0_298_62516">
<rect width="11.9998" height="12" fill="white" transform="translate(0.863281 0.880859)"/>
</clipPath>
</defs>
</svg>
