<svg width="20" height="20" viewBox="0 0 20 20" fill="none" xmlns="http://www.w3.org/2000/svg">
<g clip-path="url(#clip0_298_62876)">
<path d="M8.76205 15.7957C6.27046 15.7957 4.24339 13.7686 4.24339 11.277C4.24339 8.78542 6.27046 6.75835 8.76205 6.75835C11.2536 6.75835 13.2807 8.78542 13.2807 11.277C13.2807 13.7686 11.2536 15.7957 8.76205 15.7957ZM8.76205 8.33006C7.1371 8.33006 5.81509 9.65206 5.81509 11.277C5.81509 12.902 7.1371 14.224 8.76205 14.224C10.387 14.224 11.709 12.902 11.709 11.277C11.709 9.65206 10.387 8.33006 8.76205 8.33006ZM10.8053 0.982318C10.8053 1.52483 11.2451 1.96464 11.7876 1.96464C12.3301 1.96464 12.7699 1.52483 12.7699 0.982318C12.7699 0.439804 12.3301 0 11.7876 0C11.2451 0 10.8053 0.439804 10.8053 0.982318ZM7.03317 1.1002C7.03317 1.64271 7.47297 2.08251 8.01549 2.08251C8.558 2.08251 8.99781 1.64271 8.99781 1.1002C8.99781 0.557682 8.558 0.117878 8.01549 0.117878C7.47297 0.117878 7.03317 0.557682 7.03317 1.1002ZM3.53612 2.75049C3.53612 3.29301 3.97592 3.73281 4.51843 3.73281C5.06095 3.73281 5.50075 3.29301 5.50075 2.75049C5.50075 2.20798 5.06095 1.76817 4.51843 1.76817C3.97592 1.76817 3.53612 2.20798 3.53612 2.75049ZM1.06067 5.65815C1.06067 6.20067 1.50048 6.64047 2.04299 6.64047C2.58551 6.64047 3.02531 6.20067 3.02531 5.65815C3.02531 5.11564 2.58551 4.67583 2.04299 4.67583C1.50048 4.67583 1.06067 5.11564 1.06067 5.65815ZM0.0390625 9.35167C0.0390625 9.89418 0.478866 10.334 1.02138 10.334C1.5639 10.334 2.0037 9.89418 2.0037 9.35167C2.0037 8.80916 1.5639 8.36935 1.02138 8.36935C0.478866 8.36935 0.0390625 8.80916 0.0390625 9.35167ZM0.589161 13.1631C0.589161 13.7056 1.02896 14.1454 1.57148 14.1454C2.11399 14.1454 2.5538 13.7056 2.5538 13.1631C2.5538 12.6205 2.11399 12.1807 1.57148 12.1807C1.02896 12.1807 0.589161 12.6205 0.589161 13.1631ZM2.67168 16.3851C2.67168 16.9276 3.11148 17.3674 3.65399 17.3674C4.19651 17.3674 4.63631 16.9276 4.63631 16.3851C4.63631 15.8426 4.19651 15.4028 3.65399 15.4028C3.11148 15.4028 2.67168 15.8426 2.67168 16.3851ZM5.89368 18.4676C5.89368 19.0101 6.33348 19.4499 6.876 19.4499C7.41851 19.4499 7.85832 19.0101 7.85832 18.4676C7.85832 17.9251 7.41851 17.4853 6.876 17.4853C6.33348 17.4853 5.89368 17.9251 5.89368 18.4676ZM9.66578 19.0177C9.66578 19.5602 10.1056 20 10.6481 20C11.1906 20 11.6304 19.5602 11.6304 19.0177C11.6304 18.4752 11.1906 18.0354 10.6481 18.0354C10.1056 18.0354 9.66578 18.4752 9.66578 19.0177ZM13.3986 17.9568C13.3986 18.4993 13.8384 18.9391 14.3809 18.9391C14.9234 18.9391 15.3632 18.4993 15.3632 17.9568C15.3632 17.4143 14.9234 16.9745 14.3809 16.9745C13.8384 16.9745 13.3986 17.4143 13.3986 17.9568ZM16.3063 15.4813C16.3063 16.0239 16.7461 16.4637 17.2886 16.4637C17.8311 16.4637 18.2709 16.0239 18.2709 15.4813C18.2709 14.9388 17.8311 14.499 17.2886 14.499C16.7461 14.499 16.3063 14.9388 16.3063 15.4813ZM17.9565 12.0236C17.9565 12.5661 18.3964 13.0059 18.9389 13.0059C19.4814 13.0059 19.9212 12.5661 19.9212 12.0236C19.9212 11.4811 19.4814 11.0413 18.9389 11.0413C18.3964 11.0413 17.9565 11.4811 17.9565 12.0236ZM17.9958 8.17289C17.9958 8.7154 18.4356 9.15521 18.9782 9.15521C19.5207 9.15521 19.9605 8.7154 19.9605 8.17289C19.9605 7.63037 19.5207 7.19057 18.9782 7.19057C18.4356 7.19057 17.9958 7.63037 17.9958 8.17289ZM16.6599 6.12967C15.1433 6.12967 13.9094 4.8958 13.9094 3.37917C13.9094 1.86255 15.1433 0.628684 16.6599 0.628684C18.1765 0.628684 19.4104 1.86255 19.4104 3.37917C19.4104 4.8958 18.1765 6.12967 16.6599 6.12967ZM16.6599 2.20039C16.0099 2.20039 15.4811 2.72919 15.4811 3.37917C15.4811 4.02916 16.0099 4.55796 16.6599 4.55796C17.3099 4.55796 17.8387 4.02916 17.8387 3.37917C17.8387 2.72919 17.3099 2.20039 16.6599 2.20039Z" fill="#EEEEEE"/>
</g>
<defs>
<clipPath id="clip0_298_62876">
<rect width="20" height="20" fill="white"/>
</clipPath>
</defs>
</svg>
