<svg width="13" height="13" viewBox="0 0 13 13" fill="none" xmlns="http://www.w3.org/2000/svg">
<g clip-path="url(#clip0_511_25473)">
<mask id="mask0_511_25473" style="mask-type:luminance" maskUnits="userSpaceOnUse" x="0" y="0" width="13" height="13">
<path d="M12.9412 0.880859H0.941406V12.8809H12.9412V0.880859Z" fill="white"/>
</mask>
<g mask="url(#mask0_511_25473)">
<path d="M1.40971 12.8806C1.17626 12.8806 0.97417 12.7064 0.945039 12.4688C0.913563 12.2118 1.09634 11.978 1.35328 11.9465C1.37301 11.9441 2.38296 11.8157 3.83534 11.413C5.17586 11.0414 7.17956 10.353 9.11271 9.18417C9.11538 9.18255 9.11808 9.18096 9.12077 9.17939C9.12797 9.17522 9.87629 8.73857 10.6088 8.0616C11.2451 7.47364 12.0036 6.57782 12.0036 5.64913C12.0036 5.64065 12.0032 5.64356 12.0036 5.63838C12.0024 5.59399 11.9824 5.23822 11.6398 4.98227C11.3141 4.7388 10.4549 4.42154 8.36139 5.03139C8.35689 5.0327 8.00689 5.13486 7.49698 5.34781C7.25812 5.44756 6.98358 5.33478 6.88381 5.09591C6.78404 4.85704 6.89682 4.5825 7.13571 4.48273C7.69966 4.24719 8.08448 4.13554 8.10061 4.1309C10.0148 3.57329 11.4039 3.61375 12.2277 4.2516C12.8058 4.6991 12.9479 5.3404 12.941 5.65535C12.9387 6.6755 12.3635 7.72099 11.2312 8.76294C10.4455 9.4859 9.66778 9.94566 9.59426 9.9885C7.56408 11.2154 5.46783 11.9345 4.06628 12.3218C2.54455 12.7423 1.51056 12.8717 1.4673 12.877C1.44794 12.8794 1.4287 12.8806 1.40971 12.8806ZM12.0038 5.635C12.0038 5.63503 12.0038 5.63503 12.0038 5.635ZM3.45091 10.0205C2.69523 10.0205 2.09467 9.85022 1.65493 9.50978C1.07687 9.06225 0.934773 8.42095 0.94164 8.10601C0.94396 7.08585 1.51921 6.04036 2.65149 4.99841C3.43713 4.27546 4.21489 3.8157 4.28841 3.77286C6.31859 2.54594 8.41485 1.82688 9.81639 1.43956C11.3381 1.01906 12.3721 0.889691 12.4154 0.884394C12.6723 0.852872 12.9061 1.0357 12.9376 1.29264C12.9691 1.54958 12.7863 1.7834 12.5294 1.8149C12.5096 1.81736 11.4997 1.94573 10.0473 2.34839C8.70679 2.72003 6.70309 3.40839 4.76994 4.57725C4.76727 4.57887 4.76457 4.58047 4.76188 4.58204C4.75468 4.58621 4.00635 5.02286 3.2738 5.69983C2.63755 6.28779 1.8791 7.18361 1.8791 8.11229C1.8791 8.12078 1.8794 8.11787 1.8791 8.12305C1.88025 8.16744 1.90026 8.52321 2.24281 8.77916C2.56858 9.0226 3.42773 9.33989 5.52126 8.73004C5.54486 8.72319 7.79645 8.05853 9.30498 6.54939C9.488 6.36628 9.7848 6.36625 9.96786 6.54925C10.1509 6.73226 10.151 7.02904 9.968 7.21213C8.28468 8.89609 5.88343 9.60128 5.78204 9.63045C4.88956 9.89046 4.11102 10.0204 3.45091 10.0205ZM1.38691 3.31833C1.38691 3.64192 1.64923 3.90424 1.97282 3.90424C2.29641 3.90424 2.55873 3.64192 2.55873 3.31833C2.55873 2.99473 2.29641 2.73241 1.97282 2.73241C1.64923 2.73241 1.38691 2.99473 1.38691 3.31833ZM10.6912 11.9431C10.6912 12.2666 10.9535 12.529 11.2771 12.529C11.6007 12.529 11.863 12.2666 11.863 11.9431C11.863 11.6195 11.6007 11.3571 11.2771 11.3571C10.9535 11.3571 10.6912 11.6195 10.6912 11.9431ZM11.7693 9.90406C11.7693 10.2276 12.0316 10.49 12.3552 10.49C12.6788 10.49 12.9411 10.2276 12.9411 9.90406C12.9411 9.58046 12.6788 9.31814 12.3552 9.31814C12.0316 9.31814 11.7693 9.58046 11.7693 9.90406ZM4.24616 7.34945C4.12623 7.34945 4.00631 7.3037 3.91479 7.21223C3.7317 7.02921 3.73163 6.73243 3.91465 6.54934C4.35724 6.10655 4.89075 5.69177 5.50036 5.31647C5.7208 5.18075 6.00951 5.24947 6.14523 5.46989C6.28096 5.69034 6.21226 5.97908 5.99182 6.11478C5.44444 6.45177 4.96863 6.82097 4.57766 7.21209C4.48615 7.30368 4.36615 7.34945 4.24616 7.34945ZM3.58994 1.46682C3.58994 1.79041 3.85226 2.05274 4.17585 2.05274C4.49943 2.05274 4.76176 1.79041 4.76176 1.46682C4.76176 1.14323 4.49943 0.880902 4.17585 0.880902C3.85226 0.880902 3.58994 1.14323 3.58994 1.46682ZM7.78506 12.2946C7.78506 12.6182 8.04738 12.8805 8.37097 12.8805C8.69456 12.8805 8.95688 12.6182 8.95688 12.2946C8.95688 11.971 8.69456 11.7087 8.37097 11.7087C8.04738 11.7087 7.78506 11.971 7.78506 12.2946Z" fill="white"/>
</g>
</g>
<defs>
<clipPath id="clip0_511_25473">
<rect width="13" height="13" fill="white"/>
</clipPath>
</defs>
</svg>
