<svg width="20" height="20" viewBox="0 0 20 20" fill="none" xmlns="http://www.w3.org/2000/svg">
<g clip-path="url(#clip0_298_62812)">
<path d="M2.78801 16.5235C2.55837 16.5235 2.33091 16.4227 2.17665 16.2292C1.48592 15.3628 0.947919 14.3964 0.577532 13.3568C0.194295 12.2811 0 11.1518 0 10.0001C0 7.32906 1.04014 4.81787 2.92887 2.92911C4.8176 1.04034 7.32878 0.000235748 9.99988 0.000235748C12.2756 0.000235748 14.5029 0.785305 16.2714 2.21083C16.6073 2.48161 16.6601 2.97344 16.3893 3.30938C16.1185 3.64531 15.6267 3.69808 15.2908 3.4273C13.7775 2.20748 11.9479 1.56272 9.99992 1.56272C5.34752 1.56272 1.56252 5.34771 1.56252 10.0001C1.56252 11.9314 2.19736 13.7486 3.39844 15.2553C3.66738 15.5926 3.61195 16.0842 3.27457 16.3531C3.13067 16.4678 2.95875 16.5235 2.78801 16.5235ZM17.0709 17.0711C18.9596 15.1824 19.9997 12.6712 19.9997 10.0001C19.9997 9.54688 19.9691 9.09103 19.9086 8.64509C19.8506 8.21756 19.457 7.91776 19.0295 7.97592C18.6019 8.03389 18.3023 8.42752 18.3603 8.85505C18.4114 9.23161 18.4372 9.61684 18.4372 10.0001C18.4372 14.6525 14.6523 18.4375 9.99984 18.4375C9.50731 18.4375 9.01384 18.3948 8.5331 18.3106C8.10823 18.2361 7.70323 18.5203 7.62878 18.9453C7.55433 19.3703 7.8385 19.7752 8.26354 19.8496C8.83306 19.9494 9.41723 20 9.99988 20C12.6709 20 15.1821 18.9598 17.0709 17.0711ZM10.2343 15.0782C10.2343 15.6175 9.79703 16.0547 9.2577 16.0547C8.71837 16.0547 8.28115 15.6175 8.28115 15.0782C8.28115 14.5389 8.71837 14.1016 9.2577 14.1016C9.79703 14.1016 10.2343 14.5389 10.2343 15.0782ZM11.6796 11.836C11.1402 11.836 10.703 12.2733 10.703 12.8126C10.703 13.3519 11.1402 13.7891 11.6796 13.7891C12.2189 13.7891 12.6561 13.3519 12.6561 12.8126C12.6561 12.2733 12.2189 11.836 11.6796 11.836ZM17.1092 9.297C17.1092 8.00467 16.0578 6.95328 14.7655 6.95328C13.4731 6.95328 12.4217 8.00467 12.4217 9.297C12.4217 10.5893 13.4731 11.6407 14.7655 11.6407C16.0578 11.6407 17.1092 10.5893 17.1092 9.297ZM15.5467 9.297C15.5467 9.72778 15.1962 10.0782 14.7655 10.0782C14.3347 10.0782 13.9842 9.72778 13.9842 9.297C13.9842 8.86622 14.3347 8.51576 14.7655 8.51576C15.1962 8.51576 15.5467 8.86622 15.5467 9.297ZM3.45609 19.6814C4.50698 19.3045 5.81743 18.575 7.24581 17.5717C7.5989 17.3237 7.68409 16.8364 7.43608 16.4834C7.18808 16.1303 6.70086 16.0451 6.34778 16.2931C5.03209 17.2172 3.84976 17.8803 2.92856 18.2108C2.02326 18.5355 1.66471 18.4283 1.61822 18.3819C1.57068 18.3343 1.5349 18.1594 1.59053 17.8227C1.66084 17.397 1.37276 16.9949 0.947059 16.9246C0.521205 16.854 0.119256 17.1423 0.0489447 17.568C-0.0878505 18.3962 0.0683976 19.0417 0.513392 19.4867C0.855146 19.8284 1.31561 19.9994 1.89021 19.9994C2.34228 19.9994 2.86512 19.8934 3.45609 19.6814ZM18.4233 5.95696C20.0697 3.28602 20.4274 1.45459 19.4864 0.51355C19.0623 0.0895316 18.4515 -0.0731228 17.6708 0.0300791C17.2431 0.086641 16.9422 0.479214 16.9987 0.906983C17.0552 1.33475 17.4477 1.63541 17.8756 1.57912C18.2137 1.5344 18.3555 1.59233 18.3815 1.61846C18.4897 1.72654 18.6001 2.69243 17.0932 5.13713C16.8668 5.50443 16.981 5.98571 17.3483 6.21212C17.476 6.2909 17.6176 6.32844 17.7575 6.32844C18.0196 6.3284 18.2756 6.19649 18.4233 5.95696Z" fill="#EEEEEE"/>
</g>
<defs>
<clipPath id="clip0_298_62812">
<rect width="20" height="20" fill="white"/>
</clipPath>
</defs>
</svg>
