<svg width="13" height="13" viewBox="0 0 13 13" fill="none" xmlns="http://www.w3.org/2000/svg">
<g clip-path="url(#clip0_510_25467)">
<mask id="mask0_510_25467" style="mask-type:luminance" maskUnits="userSpaceOnUse" x="0" y="0" width="13" height="13">
<path d="M12.4939 0.880859H0.494141V12.8809H12.4939V0.880859Z" fill="white"/>
</mask>
<g mask="url(#mask0_510_25467)">
<path d="M12.4937 6.88089C12.4937 8.48351 11.8696 9.99021 10.7365 11.1235C9.60322 12.2567 8.09654 12.8808 6.49394 12.8808C6.14429 12.8808 5.79377 12.8504 5.45213 12.7906C5.19714 12.7459 5.02666 12.503 5.07133 12.2479C5.11603 11.993 5.3589 11.8226 5.61394 11.8671C5.90228 11.9177 6.19836 11.9433 6.49394 11.9433C9.28532 11.9433 11.5563 9.67231 11.5563 6.88089C11.5563 6.65097 11.5407 6.41983 11.5101 6.19388C11.4753 5.93733 11.6551 5.70118 11.9116 5.6664C12.1683 5.63162 12.4043 5.81141 12.4391 6.0679C12.4753 6.33546 12.4937 6.60897 12.4937 6.88089ZM10.0195 3.51598C9.55581 4.3371 8.65113 5.66781 6.97465 7.34433C5.29164 9.02734 3.94323 9.93091 3.10844 10.3926C2.90716 10.5039 2.68505 10.5606 2.4606 10.5606C2.34365 10.5606 2.22607 10.5452 2.1105 10.5141C1.77076 10.4225 1.48622 10.2052 1.30927 9.9022C0.776014 8.98884 0.494141 7.94411 0.494141 6.88091C0.494141 5.27922 1.1214 3.77156 2.2604 2.63569C3.3954 1.50382 4.89851 0.881003 6.49394 0.881003C7.56111 0.883956 8.62549 1.1709 9.53994 1.7107C9.84274 1.88945 10.0589 2.17567 10.1486 2.51665C10.2378 2.85567 10.192 3.21055 10.0195 3.51598ZM9.06338 2.51801C8.2924 2.06289 7.39452 1.82097 6.49394 1.81848C5.1483 1.81848 3.8804 2.34413 2.92237 3.29952C1.961 4.25821 1.43161 5.53011 1.43161 6.88093C1.43161 7.77815 1.66926 8.65945 2.11887 9.42945C2.22572 9.61245 2.46611 9.6765 2.65475 9.57216C3.43676 9.13972 4.706 8.28716 6.31172 6.68144C7.91346 5.0797 8.76819 3.82528 9.20318 3.055C9.30932 2.86706 9.24658 2.62617 9.06338 2.51801ZM2.21418 12.8254C2.71369 12.7244 3.30908 12.487 3.98387 12.1199C5.36692 11.3673 6.9165 10.165 8.34727 8.73422C9.77801 7.30346 10.9804 5.75382 11.7329 4.37078C12.1 3.69598 12.3374 3.10056 12.4384 2.60107C12.5656 1.9723 12.4737 1.49712 12.1653 1.18871C11.9112 0.934557 11.5452 0.837058 11.0773 0.898862C10.8206 0.932775 10.6401 1.16834 10.674 1.42498C10.7079 1.68164 10.9434 1.86205 11.2001 1.82826C11.4022 1.80154 11.4868 1.83604 11.5024 1.85158C11.5401 1.88931 11.5922 2.05567 11.5195 2.41517C11.4382 2.81716 11.2272 3.33847 10.9093 3.92269C10.1986 5.22897 9.05328 6.7023 7.68432 8.07125C6.31538 9.44023 4.84207 10.5856 3.53578 11.2963C2.95157 11.6142 2.43029 11.8252 2.02828 11.9065C1.66884 11.9792 1.50241 11.9271 1.4647 11.8894C1.43414 11.8588 1.41724 11.7437 1.44834 11.5553C1.49053 11.2998 1.31766 11.0586 1.06225 11.0164C0.806786 10.9741 0.565599 11.1471 0.523413 11.4025C0.441478 11.8988 0.535131 12.2856 0.801794 12.5523C1.02053 12.771 1.32314 12.8809 1.70495 12.8809C1.86151 12.8809 2.03136 12.8624 2.21418 12.8254Z" fill="white"/>
</g>
</g>
<defs>
<clipPath id="clip0_510_25467">
<rect width="13" height="13" fill="white"/>
</clipPath>
</defs>
</svg>
