<svg width="10" height="10" viewBox="0 0 10 10" fill="none" xmlns="http://www.w3.org/2000/svg">
<path fill-rule="evenodd" clip-rule="evenodd" d="M1.52762 4.41007C1.52762 2.94866 2.71233 1.76395 4.17375 1.76395C5.63516 1.76395 6.81987 2.94866 6.81987 4.41007C6.81987 5.87149 5.63516 7.0562 4.17375 7.0562C2.71233 7.0562 1.52762 5.87149 1.52762 4.41007ZM4.17375 0.587891C2.06281 0.587891 0.351562 2.29914 0.351562 4.41007C0.351562 6.52101 2.06281 8.23226 4.17375 8.23226C5.01704 8.23226 5.79655 7.95916 6.42865 7.49658L8.75619 9.82411L9.58778 8.99251L7.26025 6.66498C7.72283 6.03288 7.99593 5.25337 7.99593 4.41007C7.99593 2.29914 6.28468 0.587891 4.17375 0.587891Z" fill="#EEEEEE"/>
</svg>
