<svg width="13" height="13" viewBox="0 0 13 13" fill="none" xmlns="http://www.w3.org/2000/svg">
<g clip-path="url(#clip0_511_25485)">
<mask id="mask0_511_25485" style="mask-type:luminance" maskUnits="userSpaceOnUse" x="0" y="0" width="13" height="13">
<path d="M12.8973 0.880859H0.897461V12.8809H12.8973V0.880859Z" fill="white"/>
</mask>
<g mask="url(#mask0_511_25485)">
<path d="M6.89649 12.8809C6.31279 12.8809 5.83131 12.499 5.69837 11.9306L5.37114 10.5319C5.12259 9.46929 4.30811 8.6548 3.24555 8.40624L1.84679 8.07901C1.27902 7.94619 0.897548 7.4647 0.897548 6.88087C0.897548 6.29704 1.27902 5.81555 1.84679 5.68273L3.24555 5.3555C4.30809 5.10694 5.12256 4.29245 5.37114 3.22988L5.69837 1.8311C5.83128 1.26273 6.31279 0.880859 6.89647 0.880859C7.48017 0.880859 7.96168 1.26271 8.09462 1.83107L8.42182 3.22985C8.67038 4.29241 9.48485 5.10689 10.5474 5.35548L11.9462 5.68271C12.5139 5.81553 12.8954 6.29702 12.8954 6.88085C12.8954 7.46467 12.5139 7.94617 11.9462 8.07899L10.5474 8.40622C9.48488 8.65478 8.6704 9.46926 8.42182 10.5318L8.09462 11.9306C7.96168 12.499 7.48013 12.8809 6.89649 12.8809ZM6.89649 1.81821C6.82659 1.81821 6.65883 1.84026 6.61105 2.04458L6.28383 3.44338C6.12291 4.1313 5.77378 4.759 5.27422 5.25856C4.77467 5.75812 4.14698 6.10725 3.45907 6.26817L2.06029 6.5954C1.85684 6.643 1.83488 6.81087 1.83488 6.88085C1.83488 6.95082 1.85686 7.1187 2.06029 7.16629L3.45905 7.49352C4.14696 7.65444 4.77465 8.00358 5.2742 8.50314C5.77375 9.0027 6.12289 9.63039 6.2838 10.3183L6.61103 11.7171C6.65883 11.9214 6.82657 11.9435 6.89647 11.9435C6.96637 11.9435 7.13413 11.9214 7.18194 11.7171L7.50914 10.3183C7.67005 9.63037 8.01919 9.00268 8.51874 8.50312C9.01832 8.00356 9.64598 7.65442 10.3339 7.4935L11.7327 7.16627C11.9361 7.11868 11.9581 6.9508 11.9581 6.88082C11.9581 6.81085 11.9361 6.64297 11.7327 6.59538L10.3339 6.26815C9.64598 6.10723 9.01829 5.75809 8.51874 5.25853C8.01919 4.75895 7.67005 4.13128 7.50914 3.44336L7.18194 2.04458C7.13413 1.84026 6.96637 1.81821 6.89649 1.81821ZM9.75494 3.31902C9.68078 3.31902 9.60553 3.30137 9.53547 3.26414C9.3069 3.1427 9.22003 2.85894 9.34146 2.63037L10.1382 1.13062C10.2597 0.902043 10.5434 0.815198 10.772 0.936608C11.0005 1.05804 11.0874 1.3418 10.966 1.57037L10.1692 3.07013C10.085 3.22866 9.92275 3.31902 9.75494 3.31902ZM3.27983 4.24184C3.40126 4.01324 3.31442 3.72951 3.08583 3.60807L1.58609 2.81133C1.3575 2.68992 1.07377 2.77674 0.952335 3.00534C0.830903 3.23393 0.917748 3.51767 1.14634 3.6391L2.64608 4.43585C2.71614 4.47306 2.79139 4.49073 2.86555 4.49073C3.03334 4.4907 3.19561 4.40034 3.27983 4.24184ZM3.65477 12.6311L4.4515 11.1313C4.57293 10.9027 4.48609 10.619 4.2575 10.4976C4.0289 10.3761 3.74517 10.463 3.62374 10.6916L2.82701 12.1913C2.70557 12.4199 2.79242 12.7037 3.02101 12.8251C3.09108 12.8623 3.16632 12.88 3.24049 12.88C3.40827 12.88 3.57055 12.7896 3.65477 12.6311ZM12.8407 10.7564C12.9621 10.5278 12.8752 10.2441 12.6466 10.1226L11.1469 9.3259C10.9183 9.20449 10.6346 9.29131 10.5132 9.5199C10.3917 9.7485 10.4786 10.0322 10.7072 10.1537L12.2069 10.9504C12.277 10.9876 12.3522 11.0053 12.4264 11.0053C12.5942 11.0053 12.7564 10.9149 12.8407 10.7564ZM4.26019 3.23927C4.48799 3.11634 4.57298 2.83202 4.45005 2.60424L3.65331 1.12792C3.53038 0.900122 3.24611 0.815128 3.01829 0.938061C2.7905 1.06099 2.7055 1.34532 2.82844 1.57309L3.62517 3.04941C3.70991 3.20642 3.87131 3.29558 4.03802 3.29558C4.11317 3.29558 4.18942 3.27747 4.26019 3.23927ZM10.772 12.8251C11.0005 12.7037 11.0874 12.4199 10.966 12.1913L10.1692 10.6916C10.0478 10.463 9.76408 10.3761 9.53549 10.4976C9.30692 10.619 9.22005 10.9028 9.34149 11.1313L10.1382 12.6311C10.2224 12.7896 10.3847 12.88 10.5525 12.88C10.6266 12.88 10.7019 12.8623 10.772 12.8251ZM10.9274 4.4907C10.7596 4.4907 10.5974 4.40037 10.5132 4.24181C10.3917 4.01322 10.4786 3.72948 10.7072 3.60805L12.2069 2.8113C12.4355 2.68987 12.7192 2.77672 12.8407 3.00531C12.9621 3.23391 12.8752 3.51764 12.6466 3.63908L11.1469 4.43582C11.0768 4.47306 11.0016 4.4907 10.9274 4.4907ZM1.58609 10.9504L3.08583 10.1537C3.3144 10.0322 3.40126 9.74848 3.27983 9.5199C3.1584 9.29131 2.87467 9.20446 2.64608 9.3259L1.14634 10.1226C0.917771 10.2441 0.830903 10.5278 0.952335 10.7564C1.03655 10.9149 1.19881 11.0053 1.36661 11.0053C1.44076 11.0053 1.51603 10.9876 1.58609 10.9504Z" fill="white"/>
</g>
</g>
<defs>
<clipPath id="clip0_511_25485">
<rect width="13" height="13" fill="white"/>
</clipPath>
</defs>
</svg>
