<svg width="185" height="263" viewBox="0 0 185 263" fill="none" xmlns="http://www.w3.org/2000/svg">
<g filter="url(#filter0_d_102_3)">
<path fill-rule="evenodd" clip-rule="evenodd" d="M51.7206 95.4082C33.9906 95.4082 19.6176 109.776 19.6176 127.5C19.6176 145.224 33.9906 159.592 51.7206 159.592H84.6912V127.5V95.4082H51.7206ZM132.412 79.7959L133.279 79.7959C151.009 79.7959 165.382 65.4279 165.382 47.7041C165.382 29.9802 151.009 15.6122 133.279 15.6122H100.309V79.7959L132.412 79.7959ZM159.448 87.602C172.429 79.0765 181 64.3908 181 47.7041C181 21.3578 159.635 0 133.279 0H100.309H92.5H84.6912H51.7206C25.3652 0 4 21.3578 4 47.7041C4 64.3908 12.5707 79.0765 25.5515 87.602C12.5707 96.1276 4 110.813 4 127.5C4 144.187 12.5707 158.872 25.5515 167.398C12.5707 175.923 4 190.609 4 207.296C4 233.697 25.6358 255 51.9363 255C78.4764 255 100.309 233.503 100.309 206.862V175.204V167.398V162.796C108.785 170.505 120.05 175.204 132.412 175.204H133.279C159.635 175.204 181 153.846 181 127.5C181 110.813 172.429 96.1276 159.448 87.602ZM133.279 95.4082L132.412 95.4082C114.682 95.4082 100.309 109.776 100.309 127.5C100.309 145.224 114.682 159.592 132.412 159.592H133.279C151.009 159.592 165.382 145.224 165.382 127.5C165.382 109.776 151.009 95.4082 133.279 95.4082ZM19.6176 207.296C19.6176 189.572 33.9906 175.204 51.7206 175.204H84.6912V206.862C84.6912 224.771 69.9608 239.388 51.9363 239.388C34.1515 239.388 19.6176 224.965 19.6176 207.296ZM84.6912 79.7959H51.7206C33.9906 79.7959 19.6176 65.4279 19.6176 47.7041C19.6176 29.9802 33.9906 15.6122 51.7206 15.6122H84.6912V79.7959Z" fill="#DFDFE1"/>
</g>
<defs>
<filter id="filter0_d_102_3" x="0" y="0" width="185" height="263" filterUnits="userSpaceOnUse" color-interpolation-filters="sRGB">
<feFlood flood-opacity="0" result="BackgroundImageFix"/>
<feColorMatrix in="SourceAlpha" type="matrix" values="0 0 0 0 0 0 0 0 0 0 0 0 0 0 0 0 0 0 127 0" result="hardAlpha"/>
<feOffset dy="4"/>
<feGaussianBlur stdDeviation="2"/>
<feComposite in2="hardAlpha" operator="out"/>
<feColorMatrix type="matrix" values="0 0 0 0 0 0 0 0 0 0 0 0 0 0 0 0 0 0 0.25 0"/>
<feBlend mode="normal" in2="BackgroundImageFix" result="effect1_dropShadow_102_3"/>
<feBlend mode="normal" in="SourceGraphic" in2="effect1_dropShadow_102_3" result="shape"/>
</filter>
</defs>
</svg>
