<svg width="342" height="342" viewBox="0 0 342 342" fill="none" xmlns="http://www.w3.org/2000/svg">
<path d="M255.474 171C255.474 217.654 217.654 255.474 171 255.474C124.346 255.474 86.526 217.654 86.526 171C86.526 124.346 124.346 86.526 171 86.526C217.654 86.526 255.474 124.346 255.474 171ZM127.221 171C127.221 195.178 146.822 214.779 171 214.779C195.178 214.779 214.779 195.178 214.779 171C214.779 146.822 195.178 127.221 171 127.221C146.822 127.221 127.221 146.822 127.221 171ZM191.349 21.375C191.349 32.6134 182.238 41.724 171 41.724C159.762 41.724 150.651 32.6134 150.651 21.375C150.651 10.1366 159.762 1.026 171 1.026C182.238 1.026 191.349 10.1366 191.349 21.375ZM298.224 64.125C298.224 75.3634 289.113 84.474 277.875 84.474C266.637 84.474 257.526 75.3634 257.526 64.125C257.526 52.8866 266.637 43.776 277.875 43.776C289.113 43.776 298.224 52.8866 298.224 64.125ZM84.474 64.125C84.474 75.3634 75.3634 84.474 64.125 84.474C52.8866 84.474 43.776 75.3634 43.776 64.125C43.776 52.8866 52.8866 43.776 64.125 43.776C75.3634 43.776 84.474 52.8866 84.474 64.125ZM171 300.276C182.238 300.276 191.349 309.387 191.349 320.625C191.349 331.863 182.238 340.974 171 340.974C159.762 340.974 150.651 331.863 150.651 320.625C150.651 309.387 159.762 300.276 171 300.276ZM277.875 257.526C289.113 257.526 298.224 266.637 298.224 277.875C298.224 289.113 289.113 298.224 277.875 298.224C266.637 298.224 257.526 289.113 257.526 277.875C257.526 266.637 266.637 257.526 277.875 257.526ZM64.125 257.526C75.3634 257.526 84.474 266.637 84.474 277.875C84.474 289.113 75.3634 298.224 64.125 298.224C52.8866 298.224 43.776 289.113 43.776 277.875C43.776 266.637 52.8866 257.526 64.125 257.526ZM41.724 171C41.724 182.238 32.6134 191.349 21.375 191.349C10.1366 191.349 1.026 182.238 1.026 171C1.026 159.762 10.1366 150.651 21.375 150.651C32.6134 150.651 41.724 159.762 41.724 171ZM340.974 171C340.974 182.238 331.863 191.349 320.625 191.349C309.387 191.349 300.276 182.238 300.276 171C300.276 159.762 309.387 150.651 320.625 150.651C331.863 150.651 340.974 159.762 340.974 171Z" stroke="#525254" stroke-width="2.052"/>
</svg>
