<svg width="100" height="24" viewBox="0 0 100 24" fill="none" xmlns="http://www.w3.org/2000/svg">
<path fill-rule="evenodd" clip-rule="evenodd" d="M10 22C15.5228 22 20 17.5228 20 12C20 6.47715 15.5228 2 10 2C4.47715 2 0 6.47715 0 12C0 17.5228 4.47715 22 10 22ZM10.9969 18.8033C14.3214 18.3204 16.875 15.4584 16.875 12C16.875 8.5416 14.3214 5.67963 10.9969 5.19674C10.7004 5.15368 10.5521 5.13215 10.3988 5.19165C10.2758 5.23941 10.1459 5.35182 10.0809 5.46672C10 5.60986 10 5.78158 10 6.125V17.875C10 18.2184 10 18.3901 10.0809 18.5333C10.1459 18.6482 10.2758 18.7606 10.3988 18.8084C10.5521 18.8679 10.7004 18.8463 10.9969 18.8033Z" fill="white"/>
<path d="M34.192 19C38.008 19 40.636 16.318 40.636 12.448C40.636 8.524 37.954 5.842 34.066 5.842H29.458V19H34.192ZM33.85 7.966C36.568 7.966 38.206 9.658 38.206 12.448C38.206 15.184 36.604 16.876 33.976 16.876H31.762V7.966H33.85ZM43.5562 8.326C44.2762 8.326 44.8702 7.732 44.8702 6.994C44.8702 6.256 44.2762 5.68 43.5562 5.68C42.8002 5.68 42.2062 6.256 42.2062 6.994C42.2062 7.732 42.8002 8.326 43.5562 8.326ZM42.4582 19H44.6542V10.108H42.4582V19ZM49.5691 19.234C50.9551 19.234 52.1611 18.604 52.5391 17.686L52.7011 19H54.6271V13.6C54.6271 11.134 53.1511 9.838 50.7571 9.838C48.3451 9.838 46.7611 11.098 46.7611 13.024H48.6331C48.6331 12.088 49.3531 11.548 50.6491 11.548C51.7651 11.548 52.4851 12.034 52.4851 13.24V13.438L49.8211 13.636C47.7151 13.798 46.5271 14.824 46.5271 16.462C46.5271 18.136 47.6791 19.234 49.5691 19.234ZM50.2891 17.578C49.2991 17.578 48.7591 17.182 48.7591 16.372C48.7591 15.652 49.2811 15.202 50.6491 15.076L52.5031 14.932V15.4C52.5031 16.768 51.6391 17.578 50.2891 17.578ZM56.2804 14.356C56.2804 16.93 57.9364 18.82 60.4564 18.82C61.7344 18.82 62.8324 18.298 63.3904 17.47V18.946C63.3904 20.422 62.4184 21.376 60.9064 21.376C59.5564 21.376 58.6744 20.692 58.5304 19.54H56.3344C56.6044 21.916 58.3504 23.374 60.9064 23.374C63.7864 23.374 65.5684 21.52 65.5684 18.55V10.108H63.5344L63.4084 11.332C62.8864 10.378 61.8424 9.82 60.5104 9.82C57.9724 9.82 56.2804 11.764 56.2804 14.356ZM58.4944 14.302C58.4944 12.844 59.4304 11.746 60.8884 11.746C62.4184 11.746 63.3364 12.79 63.3364 14.302C63.3364 15.85 62.4004 16.912 60.8884 16.912C59.4484 16.912 58.4944 15.796 58.4944 14.302ZM73.421 10.072C73.061 9.982 72.755 9.946 72.449 9.946C71.261 9.946 70.415 10.54 70.037 11.422L69.911 10.126H67.841V19H70.037V14.68C70.037 12.952 71.027 12.106 72.611 12.106H73.421V10.072ZM77.2019 19.234C78.5879 19.234 79.7939 18.604 80.1719 17.686L80.3339 19H82.2599V13.6C82.2599 11.134 80.7839 9.838 78.3899 9.838C75.9779 9.838 74.3939 11.098 74.3939 13.024H76.2659C76.2659 12.088 76.9859 11.548 78.2819 11.548C79.3979 11.548 80.1179 12.034 80.1179 13.24V13.438L77.4539 13.636C75.3479 13.798 74.1599 14.824 74.1599 16.462C74.1599 18.136 75.3119 19.234 77.2019 19.234ZM77.9219 17.578C76.9319 17.578 76.3919 17.182 76.3919 16.372C76.3919 15.652 76.9139 15.202 78.2819 15.076L80.1359 14.932V15.4C80.1359 16.768 79.2719 17.578 77.9219 17.578ZM86.6132 19V13.96C86.6132 12.52 87.4592 11.836 88.5032 11.836C89.5472 11.836 90.2132 12.502 90.2132 13.744V19H92.4092V13.96C92.4092 12.502 93.2192 11.818 94.2812 11.818C95.3252 11.818 96.0092 12.484 96.0092 13.762V19H98.1872V13.186C98.1872 11.134 96.9992 9.838 94.8392 9.838C93.4892 9.838 92.4452 10.504 91.9952 11.53C91.5272 10.504 90.5912 9.838 89.2412 9.838C87.9632 9.838 87.0632 10.414 86.6132 11.152L86.4332 10.108H84.4172V19H86.6132Z" fill="white"/>
</svg>
