<svg width="171" height="257" viewBox="0 0 171 257" fill="none" xmlns="http://www.w3.org/2000/svg">
<path d="M0 42.75C0 19.1398 19.1398 0 42.75 0H85.5V85.5H42.75C19.1398 85.5 0 66.3602 0 42.75Z" fill="#F24E1E"/>
<path d="M0 128.25C0 104.64 19.1398 85.5 42.75 85.5H85.5V171H42.75C19.1398 171 0 151.86 0 128.25Z" fill="#A259FF"/>
<rect x="85.5" y="85.5" width="85.5" height="85.5" rx="42.75" fill="#1ABCFE"/>
<path d="M0 213.75C0 190.14 19.1398 171 42.75 171H85.5V213.75C85.5 237.36 66.3602 256.5 42.75 256.5C19.1398 256.5 0 237.36 0 213.75Z" fill="#0ACF83"/>
<path d="M85.5 0H128.25C151.86 0 171 19.1398 171 42.75C171 66.3602 151.86 85.5 128.25 85.5H85.5V0Z" fill="#FF7262"/>
</svg>
