<svg width="112" height="112" viewBox="0 0 112 112" fill="none" xmlns="http://www.w3.org/2000/svg">
<path fill-rule="evenodd" clip-rule="evenodd" d="M87.736 5.40585C86.2599 6.17935 86.0926 6.64857 85.9705 10.3529L85.8611 13.6739L82.8969 13.7833C79.5804 13.9056 79.0716 14.0893 78.4562 15.3859C77.7265 16.9239 78.2235 18.5844 79.6795 19.4719C80.2922 19.8455 80.7844 19.9068 83.1814 19.9074L85.9705 19.9083V23.0911C85.9705 26.5432 86.1186 27.1332 87.1988 27.9828C87.981 28.5982 89.6974 28.6056 90.6804 27.9979C91.8162 27.2959 92.0955 26.2809 92.0955 22.8571V19.9083L94.7752 19.9035C96.957 19.8996 97.6294 19.8195 98.394 19.4726C100.521 18.5072 100.629 15.5068 98.5828 14.242C97.928 13.8371 97.503 13.7833 94.9681 13.7833H92.0955V10.7899C92.0955 8.21963 92.0321 7.66553 91.6473 6.8706C90.8777 5.28094 89.1848 4.647 87.736 5.40585ZM9.82363 6.53832C9.40144 6.88022 9.30169 7.20266 9.23126 8.45238L9.1466 9.95519L8.08457 9.88016C7.18223 9.81628 6.93898 9.88869 6.46538 10.3623C5.79623 11.0314 5.74832 11.8736 6.34551 12.4708C6.67473 12.8 7.0746 12.9083 7.96141 12.9083H9.13982L9.22557 14.4236C9.32357 16.1578 9.75538 16.8458 10.7459 16.8458C11.7215 16.8458 12.1901 16.143 12.3631 14.4201L12.5149 12.9083H13.662C14.4832 12.9083 14.9024 12.7996 15.1377 12.5255C16.289 11.185 15.335 9.84581 13.2289 9.84581H12.5215L12.4292 8.39463C12.3535 7.20878 12.2445 6.86907 11.8324 6.53525C11.1897 6.01485 10.4687 6.01594 9.82363 6.53832ZM32.7049 9.06203C29.2143 9.74497 26.0079 11.3714 24.4272 13.2607C22.9622 15.0116 23.0808 17.2918 24.7076 18.6608C26.0404 19.7823 26.3638 19.7493 32.0486 17.9116C33.8533 17.3282 35.3942 16.8498 35.4727 16.8484C35.6189 16.8458 37.8947 20.1172 40.0002 23.3562L41.1749 25.1633L40.2868 26.5281C38.7144 28.944 38.0769 30.9278 38.0559 33.4708L38.0424 35.1114L36.75 35.7235C34.5625 36.7595 32.8147 38.7709 31.8844 41.3226C31.544 42.2565 31.432 43.1203 31.4149 44.9453L31.3924 47.3417L29.4236 47.7066C24.0592 48.7013 20.6176 50.0426 19.0407 51.7535C18.3149 52.541 18.158 52.8674 18.158 53.5903C18.158 55.8723 21.9509 57.926 28.2654 59.063C29.6063 59.3045 30.8584 59.4968 31.0479 59.4902C31.2489 59.4835 31.6636 58.9136 32.0434 58.1231C33.3775 55.3449 36.6857 52.9076 39.9893 52.2695C42.4301 51.7981 45.8185 52.4415 47.9211 53.7756L48.9186 54.4085L50.0594 53.1382C50.8443 52.2641 51.6576 51.6426 52.6667 51.1458C53.9742 50.5022 54.327 50.4252 55.9182 50.4366C57.4731 50.4476 57.888 50.5403 59.1386 51.1559C60.1138 51.636 60.9475 52.2752 61.7389 53.1498L62.9035 54.4369L64.0579 53.7091C65.4063 52.8588 68.138 52.0646 69.7134 52.0646C72.7921 52.0646 75.6702 53.2878 77.877 55.5341C78.7034 56.3757 79.6051 57.5644 79.947 58.2635C80.2804 58.9447 80.6702 59.5021 80.8133 59.5021C81.6994 59.5021 86.0495 58.5387 87.831 57.948C93.0937 56.2031 94.7684 53.5816 92.0708 51.3116C90.1342 49.6821 84.6871 47.8895 79.9978 47.3382C79.3124 47.2577 78.7472 47.1807 78.7415 47.1672C78.7358 47.1538 78.652 45.8897 78.5551 44.3584C78.3954 41.8334 78.3112 41.4364 77.6504 40.0928C76.6817 38.1241 75.1544 36.5421 73.3775 35.6673L71.9532 34.9662L72.0488 33.8751C72.2348 31.753 71.1992 28.5997 69.6487 26.5668C69.1335 25.8916 69.1145 25.7739 69.3274 24.574C69.5481 23.3289 69.4503 22.4497 68.9515 21.1983C68.5068 20.0827 66.8135 18.9896 61.3611 16.2983C53.4437 12.3903 48.4184 10.4489 43.4236 9.36806C40.8236 8.80544 34.8834 8.63591 32.7049 9.06203ZM14.8903 25.3392C13.6137 26.0239 13.3455 26.8333 13.3455 29.9997V32.7695L10.6658 32.8467C8.31316 32.9145 7.88551 32.9865 7.16057 33.4373C6.13485 34.0748 5.68926 34.9078 5.68926 36.1868C5.68926 36.978 5.82335 37.3269 6.36344 37.9423C7.22969 38.9288 8.09398 39.1557 10.9939 39.157L13.3455 39.1583L13.3459 42.0567C13.3462 45.3979 13.6095 46.2279 14.8768 46.8813C15.7752 47.3444 17.208 47.2761 18.041 46.7303C19.0919 46.0417 19.343 45.1978 19.4316 42.0567L19.5134 39.1583H21.9052C24.53 39.1583 25.3621 38.9299 26.2518 37.9657C26.978 37.1786 27.0279 35.3411 26.3476 34.43C25.352 33.0965 24.9038 32.9298 22.1019 32.8513L19.5136 32.7789L19.4309 30.0076C19.3679 27.8933 19.2566 27.0656 18.9613 26.5159C18.1773 25.0559 16.3846 24.5379 14.8903 25.3392ZM97.9755 40.2536C97.7806 40.3676 97.4577 40.7101 97.258 41.0148C96.833 41.6636 96.999 42.1272 98.0571 43.2456L98.7164 43.9424L97.9215 44.871C96.9655 45.9881 96.8461 47.0307 97.613 47.5677C98.4198 48.133 99.0585 47.9851 99.9104 47.0361L100.693 46.164L101.64 47.0361C102.703 48.0161 103.451 48.147 104.127 47.4708C104.804 46.794 104.685 45.9234 103.799 45.0646C103.378 44.6564 103.033 44.2134 103.033 44.0802C103.033 43.947 103.378 43.504 103.799 43.0958C104.775 42.1497 104.846 41.1618 103.988 40.4868C103.142 39.8213 102.645 39.9244 101.691 40.963L100.838 41.8927L99.9753 40.963C99.1126 40.0329 98.6403 39.8653 97.9755 40.2536ZM9.40801 54.0333C9.05385 54.3875 8.97051 54.7624 8.97051 56.0021V57.5333H7.67398C6.53363 57.5333 6.32254 57.6029 5.92398 58.1097C5.32854 58.8666 5.35151 59.403 6.00754 60.0588C6.44832 60.4998 6.76113 60.5958 7.75754 60.5958H8.97051V61.9759C8.97051 63.704 9.23563 64.0864 10.4663 64.133C11.66 64.1783 11.8066 63.9538 11.811 62.0724L11.8143 60.5958H13.0272C14.0236 60.5958 14.3364 60.4998 14.7772 60.0588C15.4276 59.4084 15.468 58.5621 14.8768 57.9708C14.5364 57.6304 14.1477 57.5333 13.1268 57.5333H11.8143V55.9051C11.8143 54.4706 11.7565 54.2363 11.328 53.9364C10.6649 53.4718 9.93257 53.5087 9.40801 54.0333ZM53.7806 54.3529C52.7013 54.928 51.9131 55.7658 51.7173 56.5463C51.6486 56.8195 51.8466 57.567 52.1859 58.3153C52.5088 59.0282 52.8953 60.0052 53.0445 60.4864L53.3157 61.3614H55.8847H58.4537L58.9798 59.9619C59.2692 59.1921 59.715 58.2243 59.9703 57.8111L60.4345 57.0601L59.8041 56.1692C59.4574 55.679 58.8009 54.9779 58.3452 54.6108C57.6551 54.055 57.29 53.9325 56.1577 53.8771C55.048 53.8226 54.6118 53.9101 53.7806 54.3529ZM40.1168 55.5534C36.1734 56.4947 33.3178 60.8014 34.0894 64.6438C34.6658 67.5133 36.6247 69.9388 39.1482 70.907C40.7063 71.5051 43.1929 71.5451 44.7361 70.9969C47.808 69.9062 50.0955 66.7077 50.0955 63.503C50.0955 61.1088 48.6745 58.2956 46.7502 56.8805C45.0658 55.6418 42.1717 55.0627 40.1168 55.5534ZM67.9236 55.5409C62.0579 57.1118 59.8375 64.3915 63.8848 68.7825C65.905 70.9742 68.8809 71.9268 71.6061 71.2542C74.862 70.4507 76.9186 68.3505 77.7936 64.9356C78.4112 62.525 77.5213 59.7818 75.4493 57.7098C73.9622 56.223 72.315 55.5029 70.2249 55.4259C69.3201 55.3924 68.2846 55.4442 67.9236 55.5409ZM40.2168 59.9319C39.2057 60.4818 38.5678 61.2881 38.2703 62.3926C37.989 63.4378 38.1537 64.3432 38.8439 65.5439C40.1671 67.8461 43.8375 67.8174 45.199 65.4941C45.8688 64.3511 45.9677 62.5834 45.421 61.5261C44.5045 59.7538 41.9714 58.9777 40.2168 59.9319ZM67.9958 59.9455C66.8979 60.5254 66.234 61.5312 66.1122 62.7991C65.9606 64.3769 66.2023 65.2285 67.0493 66.1006C69.5783 68.7044 73.9729 66.7053 73.6728 63.0874C73.4361 60.2325 70.5141 58.6152 67.9958 59.9455ZM81.3844 62.3314C81.2599 62.5641 81.158 63.4627 81.158 64.3281C81.158 65.8681 81.195 65.9727 82.884 69.2097C85.9178 75.0248 88.3765 79.9814 88.3855 80.301C88.3903 80.4719 88.5627 80.3161 88.7683 79.9552C89.07 79.4258 89.1404 78.7492 89.1328 76.4552C89.1223 73.3872 88.8731 72.2368 87.4917 68.881C85.5402 64.1398 82.285 60.649 81.3844 62.3314ZM28.4883 62.5656C27.6489 63.0773 26.4003 64.9459 25.0539 67.7052C23.1766 71.5528 22.3528 75.2829 22.7546 78.1164C23.1112 80.6307 23.2229 80.6431 24.3989 78.3012C24.9692 77.1655 25.8009 75.5474 26.2469 74.7052C30.0924 67.4449 30.9943 65.5109 30.8372 64.8614C30.7499 64.5005 30.6668 63.7377 30.6526 63.1661C30.6272 62.1448 30.6145 62.1271 29.9158 62.1279C29.5249 62.1284 28.8824 62.3252 28.4883 62.5656ZM53.2777 64.8067C53.2306 64.9572 53.1272 65.4739 53.048 65.9552C52.9686 66.4364 52.6164 67.4348 52.2653 68.174C51.914 68.9131 51.6268 69.6306 51.6268 69.7686C51.6268 70.3251 52.5363 71.7488 53.2875 72.3678C55.4518 74.152 58.5561 73.4789 59.7796 70.9602C60.1994 70.0963 60.2188 69.9159 59.9598 69.2861C59.8001 68.8978 59.3611 67.673 58.9842 66.5646L58.2986 64.5488L55.8309 64.5412C54.0424 64.5355 53.3396 64.6086 53.2777 64.8067ZM78.0922 71.0857C75.9224 73.3378 73.5149 74.4567 70.2549 74.7286L68.4432 74.8797L68.5873 75.7768C68.9041 77.7451 70.1313 78.7726 72.5229 79.0714C73.9662 79.2517 73.8728 79.0863 74.6861 82.9083C75.8487 88.3733 77.0853 94.3017 78.3057 100.263C79.1018 104.152 79.6646 106.423 79.863 106.549C80.0339 106.657 83.9256 106.747 88.5113 106.749C99.8559 106.753 99.4425 107.178 95.4035 99.6641C92.3171 93.9221 91.7407 92.8595 90.2315 90.127C89.045 87.9787 83.433 77.4759 80.8518 72.5724C80.0444 71.0385 79.3645 69.7947 79.3411 69.8085C79.3177 69.8222 78.7557 70.3971 78.0922 71.0857ZM31.2285 72.2442C30.5782 73.4773 29.521 75.52 28.8792 76.7833C27.8119 78.8844 26.5256 81.2847 24.7767 84.4395C23.3319 87.0457 14.6886 102.979 14.2496 103.845C13.6456 105.037 13.6612 105.556 14.32 106.215L14.8569 106.752H23.303C28.4412 106.752 31.9073 106.667 32.1528 106.536C32.3997 106.404 32.6139 105.959 32.7053 105.388C32.8781 104.308 33.8874 99.2419 34.6561 95.5958C34.9477 94.2122 35.7361 90.4716 36.4081 87.2833C37.0801 84.095 37.7523 81.0008 37.9017 80.4073L38.1736 79.3282L39.879 78.9658C42.3542 78.4401 43.092 77.7771 43.4131 75.79L43.556 74.9058L41.4118 74.6735C38.0756 74.3121 35.9398 73.3124 33.7658 71.0954C33.1822 70.5001 32.6386 70.0108 32.5579 70.0077C32.4769 70.0047 31.8787 71.0111 31.2285 72.2442ZM47.9885 72.9834L46.8777 73.693L46.7615 75.5552C46.5603 78.78 45.1111 80.7993 42.4082 81.6203C41.4914 81.8988 40.8839 82.2096 40.8166 82.4347C40.7564 82.6351 40.5116 83.7341 40.2725 84.877C40.0334 86.02 39.2794 89.5638 38.5971 92.752C36.8303 101.008 35.887 105.935 36.0297 106.166C36.1312 106.331 75.8818 106.164 76.0714 105.998C76.1289 105.948 74.8755 99.635 74.1578 96.3614C73.505 93.3827 71.4877 83.7767 71.3357 82.9223C71.216 82.249 71.099 82.1442 70.2172 81.9193C68.3347 81.4392 66.4495 79.8574 65.7158 78.1424C65.5248 77.6957 65.333 76.5427 65.2899 75.5802L65.2114 73.8302L64.0638 73.0856L62.9162 72.3407L62.3628 73.0856C60.2066 75.9864 57.1964 77.2925 54.3097 76.5794C52.8091 76.2086 51.1042 74.9972 50.0308 73.5392L49.0991 72.2738L47.9885 72.9834ZM58.8455 79.4326C56.8087 80.3789 55.7918 80.4454 53.8972 79.7561C51.7442 78.973 51.3271 79.0041 50.8631 79.9819C50.3897 80.9796 50.6227 81.5787 51.7821 82.3441C53.8007 83.6768 56.9137 83.8616 59.2583 82.7882C60.9648 82.007 61.2979 81.6619 61.135 80.8435C60.9171 79.7485 60.5719 78.7514 60.4144 78.7621C60.3337 78.7676 59.6275 79.0695 58.8455 79.4326Z" fill="#74717B"/>
</svg>
