<svg width="48" height="40" viewBox="0 0 48 40" fill="none" xmlns="http://www.w3.org/2000/svg">
<path fill-rule="evenodd" clip-rule="evenodd" d="M15.6453 13.0722L14.6655 12.48L14.8969 13.6012L17.5796 26.6012L17.8226 27.7787L18.4862 26.7761L21.5247 22.1856L26.7439 20.7691L27.8714 20.4631L26.8716 19.8587L15.6453 13.0722ZM18.316 25.2215L16.1076 14.5203L25.3544 20.1101L21.0808 21.2699L20.8989 21.3193L20.7948 21.4765L18.316 25.2215ZM38.4748 19.475L38.8283 19.1214L38.1212 18.4143L37.7676 18.7679L35.9999 20.5357L34.2321 18.7679L33.8786 18.4143L33.1714 19.1214L33.525 19.475L35.6463 21.5963L35.9999 21.9499L36.3534 21.5963L38.4748 19.475Z" fill="#535355"/>
</svg>
