<svg width="40" height="40" viewBox="0 0 40 40" fill="none" xmlns="http://www.w3.org/2000/svg">
<path fill-rule="evenodd" clip-rule="evenodd" d="M14 14.5428C14 12.7351 15.4651 11.27 17.2727 11.27H22.7273C24.5349 11.27 26 12.7351 26 14.5428C26 15.6806 25.4185 16.6842 24.5371 17.27C25.4185 17.8559 26 18.8595 26 19.9973C26 21.805 24.5349 23.2701 22.7273 23.2701C21.8895 23.2701 21.1236 22.9548 20.5455 22.4366V25.4519C20.5455 27.2595 19.0804 28.7246 17.2727 28.7246C15.4651 28.7246 14 27.2595 14 25.4519C14 24.313 14.5815 23.3115 15.4629 22.7246C14.5815 22.1377 14 21.1362 14 19.9973C14 18.8595 14.5815 17.8559 15.4629 17.27C14.5815 16.6842 14 15.6806 14 14.5428ZM17.2727 16.7246C16.0673 16.7246 15.0909 15.7482 15.0909 14.5428C15.0909 13.3373 16.0673 12.3609 17.2727 12.3609H19.4545V16.7246H17.2727ZM19.4545 17.8155H17.2727C16.0673 17.8155 15.0909 18.7919 15.0909 19.9973C15.0909 21.2028 16.0673 22.1791 17.2727 22.1791H19.4545V17.8155ZM19.4545 23.2701H17.2727C16.0673 23.2701 15.0909 24.2464 15.0909 25.4519C15.0909 26.6573 16.0673 27.6337 17.2727 27.6337C18.4782 27.6337 19.4545 26.6573 19.4545 25.4519V23.2701ZM22.7273 17.8155C21.5218 17.8155 20.5455 18.7919 20.5455 19.9973C20.5455 21.2028 21.5218 22.1791 22.7273 22.1791C23.9327 22.1791 24.9091 21.2028 24.9091 19.9973C24.9091 18.7919 23.9327 17.8155 22.7273 17.8155ZM22.7273 16.7246C23.9327 16.7246 24.9091 15.7482 24.9091 14.5428C24.9091 13.3373 23.9327 12.3609 22.7273 12.3609H20.5455V16.7246H22.7273Z" fill="#535355"/>
</svg>
