<svg width="33" height="33" viewBox="0 0 33 33" fill="none" xmlns="http://www.w3.org/2000/svg">
<path d="M18.708 2.70871C18.708 3.81329 17.8126 4.70872 16.708 4.70872C15.6034 4.70872 14.708 3.81329 14.708 2.70871C14.708 1.60413 15.6034 0.708694 16.708 0.708694C17.8126 0.708694 18.708 1.60413 18.708 2.70871Z" fill="white"/>
<path fill-rule="evenodd" clip-rule="evenodd" d="M16.708 24.7089C21.1263 24.7089 24.708 21.1271 24.708 16.7088C24.708 12.2905 21.1263 8.70875 16.708 8.70875C12.2897 8.70875 8.70801 12.2905 8.70801 16.7088C8.70801 21.1271 12.2897 24.7089 16.708 24.7089ZM16.708 20.7088C18.9171 20.7088 20.708 18.918 20.708 16.7088C20.708 14.4997 18.9171 12.7088 16.708 12.7088C14.4989 12.7088 12.708 14.4997 12.708 16.7088C12.708 18.918 14.4989 20.7088 16.708 20.7088Z" fill="white"/>
<path d="M26.708 8.70875C27.8126 8.70875 28.708 7.81331 28.708 6.70874C28.708 5.60416 27.8126 4.70872 26.708 4.70872C25.6034 4.70872 24.708 5.60416 24.708 6.70874C24.708 7.81331 25.6034 8.70875 26.708 8.70875Z" fill="white"/>
<path d="M8.70801 6.70874C8.70801 7.81331 7.81258 8.70875 6.70801 8.70875C5.60344 8.70875 4.70801 7.81331 4.70801 6.70874C4.70801 5.60416 5.60344 4.70872 6.70801 4.70872C7.81258 4.70872 8.70801 5.60416 8.70801 6.70874Z" fill="white"/>
<path d="M16.708 28.7089C17.8126 28.7089 18.708 29.6043 18.708 30.7089C18.708 31.8135 17.8126 32.7089 16.708 32.7089C15.6034 32.7089 14.708 31.8135 14.708 30.7089C14.708 29.6043 15.6034 28.7089 16.708 28.7089Z" fill="white"/>
<path d="M28.708 26.7089C28.708 25.6043 27.8126 24.7089 26.708 24.7089C25.6034 24.7089 24.708 25.6043 24.708 26.7089C24.708 27.8135 25.6034 28.7089 26.708 28.7089C27.8126 28.7089 28.708 27.8135 28.708 26.7089Z" fill="white"/>
<path d="M6.70801 24.7089C7.81258 24.7089 8.70801 25.6043 8.70801 26.7089C8.70801 27.8135 7.81258 28.7089 6.70801 28.7089C5.60344 28.7089 4.70801 27.8135 4.70801 26.7089C4.70801 25.6043 5.60344 24.7089 6.70801 24.7089Z" fill="white"/>
<path d="M4.70801 16.7088C4.70801 17.8134 3.81258 18.7088 2.70801 18.7088C1.60344 18.7088 0.708008 17.8134 0.708008 16.7088C0.708008 15.6042 1.60344 14.7088 2.70801 14.7088C3.81258 14.7088 4.70801 15.6042 4.70801 16.7088Z" fill="white"/>
<path d="M30.708 18.7088C31.8126 18.7088 32.708 17.8134 32.708 16.7088C32.708 15.6042 31.8126 14.7088 30.708 14.7088C29.6034 14.7088 28.708 15.6042 28.708 16.7088C28.708 17.8134 29.6034 18.7088 30.708 18.7088Z" fill="white"/>
</svg>
