<svg width="48" height="40" viewBox="0 0 48 40" fill="none" xmlns="http://www.w3.org/2000/svg">
<path fill-rule="evenodd" clip-rule="evenodd" d="M21.1102 15.6375L21.1217 15.6408L21.1334 15.6438C23.0705 16.1462 24.4998 17.9075 24.4998 20.0001C24.4998 20.4784 24.4256 20.9374 24.2887 21.3673L24.1039 21.9473L24.5344 22.3778L26.3993 24.2427L24.278 26.3641L22.4312 24.5173L21.9957 24.0818L21.4108 24.2747C20.9683 24.4207 20.4943 24.5001 19.9998 24.5001C17.8285 24.5001 16.0144 22.9613 15.5925 20.9141L15.5848 20.8769L15.5744 20.8404L13.7423 14.4497L18.646 19.3534C18.5523 19.5492 18.4998 19.7685 18.4998 20.0001C18.4998 20.8285 19.1714 21.5001 19.9998 21.5001C20.8282 21.5001 21.4998 20.8285 21.4998 20.0001C21.4998 19.1717 20.8282 18.5001 19.9998 18.5001C19.7682 18.5001 19.5489 18.5526 19.3531 18.6463L14.4435 13.7367L21.1102 15.6375ZM27.8135 24.2427L27.1064 23.5356L25.2415 21.6707C25.4093 21.1438 25.4998 20.5825 25.4998 20.0001C25.4998 17.4408 23.7517 15.2897 21.3844 14.6759L13.1327 12.3231L11.9998 12.0001L12.3244 13.1325L14.6131 21.116C15.1288 23.6185 17.3446 25.5001 19.9998 25.5001C20.6021 25.5001 21.1818 25.4033 21.7241 25.2244L23.5709 27.0712L24.278 27.7783L24.9851 27.0712L27.1064 24.9498L27.8135 24.2427ZM40.4747 19.475L40.8282 19.1214L40.1211 18.4143L39.7676 18.7679L37.9998 20.5356L36.232 18.7679L35.8785 18.4143L35.1714 19.1214L35.5249 19.475L37.6463 21.5963L37.9998 21.9498L38.3534 21.5963L40.4747 19.475Z" fill="#535355"/>
</svg>
