<svg width="48" height="40" viewBox="0 0 48 40" fill="none" xmlns="http://www.w3.org/2000/svg">
<path fill-rule="evenodd" clip-rule="evenodd" d="M16 25L16 28H17L17 25H25V28H26V25H29V24H26L26 16H29V15H26V12H25V15H17L17 12H16L16 15H13V16H16L16 24H13V25H16ZM25 16L25 24H17L17 16H25ZM40.4749 19.4749L40.8284 19.1213L40.1213 18.4142L39.7678 18.7678L38 20.5355L36.2322 18.7678L35.8787 18.4142L35.1716 19.1213L35.5251 19.4749L37.6464 21.5962L38 21.9497L38.3536 21.5962L40.4749 19.4749Z" fill="#535355"/>
</svg>
